<?xml version="1.0" encoding="UTF-8"?>
<svg version="1.1" viewBox="0 0 32 32" xmlns="http://www.w3.org/2000/svg">
<title>icon 29 sun</title>
<desc>Created with Sketch.</desc>
<g fill="none" fill-rule="evenodd">
<g fill="#fff">
<path d="m16.529 22c3.0376 0 5.5-2.4624 5.5-5.5s-2.4624-5.5-5.5-5.5c-3.0376 0-5.5 2.4624-5.5 5.5s2.4624 5.5 5.5 5.5zm0-15c-0.27614 0-0.5 0.21575-0.5 0.49539v2.0092c0 0.2736 0.23193 0.49539 0.5 0.49539 0.27614 0 0.5-0.21575 0.5-0.49539v-2.0092c0-0.2736-0.23193-0.49539-0.5-0.49539zm6.7381 2.791c-0.19526-0.19526-0.50611-0.20099-0.70385-0.0032605l-1.4207 1.4207c-0.19346 0.19346-0.18629 0.51429 0.0032605 0.70385 0.19526 0.19526 0.50611 0.20099 0.70385 0.0032605l1.4207-1.4207c0.19346-0.19346 0.18629-0.51429-0.0032605-0.70385zm2.791 6.7381c0-0.27614-0.21575-0.5-0.49539-0.5h-2.0092c-0.2736 0-0.49539 0.23193-0.49539 0.5 0 0.27614 0.21575 0.5 0.49539 0.5h2.0092c0.2736 0 0.49539-0.23193 0.49539-0.5zm-2.791 6.7381c0.19526-0.19526 0.20099-0.50611 0.0032605-0.70385l-1.4207-1.4207c-0.19346-0.19346-0.51429-0.18629-0.70385 0.0032605-0.19526 0.19526-0.20099 0.50611-0.0032605 0.70385l1.4207 1.4207c0.19346 0.19346 0.51429 0.18629 0.70385-0.0032605zm-6.7381 2.791c0.27614 0 0.5-0.21575 0.5-0.49539v-2.0092c0-0.2736-0.23193-0.49539-0.5-0.49539-0.27614 0-0.5 0.21575-0.5 0.49539v2.0092c0 0.2736 0.23193 0.49539 0.5 0.49539zm-6.7381-2.791c0.19526 0.19526 0.50611 0.20099 0.70385 0.0032605l1.4207-1.4207c0.19346-0.19346 0.18629-0.51429-0.0032605-0.70385-0.19526-0.19526-0.50611-0.20099-0.70385-0.0032605l-1.4207 1.4207c-0.19346 0.19346-0.18629 0.51429 0.0032605 0.70385zm-2.791-6.7381c0 0.27614 0.21575 0.5 0.49539 0.5h2.0092c0.2736 0 0.49539-0.23193 0.49539-0.5 0-0.27614-0.21575-0.5-0.49539-0.5h-2.0092c-0.2736 0-0.49539 0.23193-0.49539 0.5zm2.791-6.7381c-0.19526 0.19526-0.20099 0.50611-0.0032605 0.70385l1.4207 1.4207c0.19346 0.19346 0.51429 0.18629 0.70385-0.0032605 0.19526-0.19526 0.20099-0.50611 0.0032605-0.70385l-1.4207-1.4207c-0.19346-0.19346-0.51429-0.18629-0.70385 0.0032605z"/>
</g>
</g>
</svg>
