<?xml version="1.0" encoding="UTF-8"?>
<svg version="1.1" viewBox="0 0 32 32" xmlns="http://www.w3.org/2000/svg">
<title>icon 10 cloud lightning</title>
<desc>Created with Sketch.</desc>
<g fill="none" fill-rule="evenodd">
<g fill="#fff">
<path d="m17.067 18h2.5333l-6.1 6.1 1.4787-4.1h-2.5786l2.2999-6h3.9l-1.5333 4zm0.93331 3h7.0006c2.7611 0 4.9994-2.2442 4.9994-5 0-2.0517-1.2324-3.8147-3.0007-4.5855-0.045675-2.9982-2.4903-5.4145-5.4993-5.4145-1.0586 0-2.0474 0.2991-2.8865 0.8174-1.2763-1.7101-3.3156-2.8174-5.6135-2.8174-3.866 0-7 3.134-7 7 0 0.13815 0.0040021 0.27537 0.011897 0.41154-1.7722 0.77007-3.0119 2.5376-3.0119 4.5885 0 2.7614 2.2325 5 4.9994 5h5.546l-2.5455 7 7-7z"/>
</g>
</g>
</svg>
