<?xml version="1.0" encoding="UTF-8"?>
<svg version="1.1" viewBox="0 0 32 32" xmlns="http://www.w3.org/2000/svg">
<title>icon 5 cloud sun rain</title>
<desc>Created with Sketch.</desc>
<g fill="none" fill-rule="evenodd">
<g fill="#000">
<path d="m24.953 10.219c0.030733-0.23535 0.046587-0.47538 0.046587-0.71911 0-3.0376-2.4624-5.5-5.5-5.5-2.2028 0-4.1032 1.295-4.9813 3.1652-0.48899-0.10817-0.9972-0.16521-1.5187-0.16521-3.866 0-7 3.134-7 7 0 0.13815 0.0040021 0.27537 0.011897 0.41154-1.7722 0.77007-3.0119 2.5376-3.0119 4.5885 0 2.7614 2.2325 5 4.9994 5h17.001c2.7611 0 4.9994-2.2442 4.9994-5 0-2.0517-1.2324-3.8147-3.0007-4.5855-0.02582-1.6949-0.81827-3.2038-2.0459-4.1954zm-0.95448-0.61995c7.128e-4 -0.032968 0.001071-0.066023 0.001071-0.099162 0-2.4853-2.0147-4.5-4.5-4.5-1.7492 0-3.2654 0.99808-4.01 2.4558 1.2534 0.47719 2.3343 1.3041 3.1235 2.3616 0.83903-0.5183 1.8278-0.8174 2.8865-0.8174 0.8998 0 1.7491 0.21607 2.4989 0.59916zm-4.4989-9.5992c-0.27614 0-0.5 0.21575-0.5 0.49539v2.0092c0 0.2736 0.23193 0.49539 0.5 0.49539 0.27614 0 0.5-0.21575 0.5-0.49539v-2.0092c0-0.2736-0.23193-0.49539-0.5-0.49539zm6.7331 2.7889c-0.19526-0.19526-0.50611-0.20099-0.70385-0.0032605l-1.4207 1.4207c-0.19346 0.19346-0.18629 0.51429 0.0032605 0.70385 0.19526 0.19526 0.50611 0.20099 0.70385 0.0032605l1.4207-1.4207c0.19346-0.19346 0.18629-0.51429-0.0032605-0.70385zm2.7889 6.7331c0-0.27614-0.21575-0.5-0.49539-0.5h-2.0092c-0.2736 0-0.49539 0.23193-0.49539 0.5 0 0.27614 0.21575 0.5 0.49539 0.5h2.0092c0.2736 0 0.49539-0.23193 0.49539-0.5zm-16.255-6.7331c-0.19526 0.19526-0.20099 0.50611-0.0032605 0.70385l1.4207 1.4207c0.19346 0.19346 0.51429 0.18629 0.70385-0.0032605 0.19526-0.19526 0.20099-0.50611 0.0032605-0.70385l-1.4207-1.4207c-0.19346-0.19346-0.51429-0.18629-0.70385 0.0032605z" fill="#fff"/>
</g>
</g>
</svg>