<?xml version="1.0" encoding="UTF-8"?>
<svg version="1.1" viewBox="0 0 32 32" xmlns="http://www.w3.org/2000/svg">
<title>icon 4 cloud rain</title>
<desc>Created with Sketch.</desc>
<g fill="none" fill-rule="evenodd">
<g fill="#fff">
<path d="m26.999 14.415c1.7683 0.77076 3.0007 2.5338 3.0007 4.5855 0 2.7558-2.2383 5-4.9994 5h-17.001c-2.7669 0-4.9994-2.2386-4.9994-5 0-2.0509 1.2397-3.8184 3.0119-4.5885-0.0078945-0.13617-0.011897-0.27339-0.011897-0.41154 0-3.866 3.134-7 7-7 2.2979 0 4.3373 1.1073 5.6135 2.8174 0.83903-0.5183 1.8278-0.8174 2.8865-0.8174 3.009 0 5.4537 2.4164 5.4993 5.4145zm-16.499 10.585c-0.27614 0-0.5 0.21575-0.5 0.49539v2.0092c0 0.2736 0.23193 0.49539 0.5 0.49539 0.27614 0 0.5-0.21575 0.5-0.49539v-2.0092c0-0.2736-0.23193-0.49539-0.5-0.49539zm3 2c-0.27614 0-0.5 0.21575-0.5 0.49539v2.0092c0 0.2736 0.23193 0.49539 0.5 0.49539 0.27614 0 0.5-0.21575 0.5-0.49539v-2.0092c0-0.2736-0.23193-0.49539-0.5-0.49539zm3-2c-0.27614 0-0.5 0.21575-0.5 0.49539v2.0092c0 0.2736 0.23193 0.49539 0.5 0.49539 0.27614 0 0.5-0.21575 0.5-0.49539v-2.0092c0-0.2736-0.23193-0.49539-0.5-0.49539zm3 2c-0.27614 0-0.5 0.21575-0.5 0.49539v2.0092c0 0.2736 0.23193 0.49539 0.5 0.49539 0.27614 0 0.5-0.21575 0.5-0.49539v-2.0092c0-0.2736-0.23193-0.49539-0.5-0.49539zm3-2c-0.27614 0-0.5 0.21575-0.5 0.49539v2.0092c0 0.2736 0.23193 0.49539 0.5 0.49539 0.27614 0 0.5-0.21575 0.5-0.49539v-2.0092c0-0.2736-0.23193-0.49539-0.5-0.49539z"/>
</g>
</g>
</svg>
