<?xml version="1.0" encoding="UTF-8"?>
<svg version="1.1" viewBox="0 0 32 32" xmlns="http://www.w3.org/2000/svg">
<title>icon 24 cloud fog</title>
<desc>Created with Sketch.</desc>
<g fill="none" fill-rule="evenodd">
<g fill="#fff">
<path d="m29.9 20c0.065793-0.32322 0.10033-0.65766 0.10033-1h-27c0 0.34247 0.034337 0.67689 0.099771 1h26.8zm-0.31671 1c-0.1562 0.3569-0.3529 0.69219-0.58429 1h-24.999v0.0029306c-0.2318-0.30853-0.42868-0.64479-0.58486-1.0029h26.168zm-11.684-12c0.25858 0.25339 0.4976 0.52668 0.71456 0.8174 0.83903-0.5183 1.8278-0.8174 2.8865-0.8174 1.1774 0 2.2684 0.36997 3.1631 1h-17.408c0.2507-0.35941 0.53426-0.6942 0.84633-1h9.798zm-1.2914-1c-1.0535-0.63482-2.2879-1-3.6076-1s-2.554 0.36518-3.6076 1h7.2152zm9.1353 3c0.25363 0.30711 0.47456 0.64222 0.65745 1h-20.11c0.10275-0.34525 0.23142-0.67933 0.38375-1h19.069zm1.0501 2c0.091153 0.32228 0.15366 0.65659 0.18461 1h-20.978c0-0.33952 0.024172-0.6734 0.070889-1h20.722zm1.207 1.9976c0.37971 0.28495 0.71737 0.62272 1.0022 1.0024h-25.001c0.28454-0.37852 0.62152-0.71549 1.0002-1h22.999v-0.0024136zm1.5849 2.0024c0.13846 0.3175 0.24493 0.6522 0.31536 1h-26.8c0.070773-0.34769 0.17771-0.6824 0.31671-1h26.168zm-1.5864 6c-0.83527 0.62763-1.8732 1-2.9979 1h-17.001c-1.1281 0-2.1673-0.37209-3.0027-1h23.002z"/>
</g>
</g>
</svg>
