<?xml version="1.0" encoding="UTF-8"?>
<svg version="1.1" viewBox="0 0 32 32" xmlns="http://www.w3.org/2000/svg">
<title>icon 3 cloud moon</title>
<desc>Created with Sketch.</desc>
<g fill="none" fill-rule="evenodd">
<g fill="#fff">
<path d="m25.275 10.5c0.75152-0.70949 1.3032-1.6285 1.5616-2.6635 0.087719-0.35139 0.14164-0.71615 0.15811-1.0906-0.46764 0.16461-0.97067 0.25416-1.4946 0.25416-2.4853 0-4.5-2.0147-4.5-4.5 0-0.52394 0.089541-1.027 0.25416-1.4946-0.37449 0.016473-0.73926 0.070396-1.0906 0.15811-2.3917 0.59706-4.1635 2.7599-4.1635 5.3365 0 0.42731 0.048731 0.84324 0.14094 1.2425-0.94458-0.47506-2.0115-0.74254-3.1409-0.74254-3.866 0-7 3.134-7 7 0 0.13815 0.0040021 0.27537 0.011897 0.41154-1.7722 0.77007-3.0119 2.5376-3.0119 4.5885 0 2.7614 2.2325 5 4.9994 5h17.001c2.7611 0 4.9994-2.2442 4.9994-5 0-2.0517-1.2324-3.8147-3.0007-4.5855-0.02349-1.5419-0.68147-2.9299-1.7244-3.9145zm-0.7979-0.62543c0.56981-0.50306 1.0112-1.1482 1.2688-1.88-0.0815 0.003585-0.16346 0.0053963-0.24584 0.0053963-3.0376 0-5.5-2.4624-5.5-5.5 0-0.082384 0.0018113-0.16434 0.0053963-0.24584-1.7506 0.61623-3.0054 2.2845-3.0054 4.2458 0 0.7995 0.2085 1.5503 0.57409 2.201 0.38551 0.33307 0.73429 0.7075 1.0395 1.1164 0.83903-0.5183 1.8278-0.8174 2.8865-0.8174 1.097 0 2.119 0.32116 2.977 0.87457z"/>
</g>
</g>
</svg>
