<?xml version="1.0" encoding="UTF-8"?>
<svg version="1.1" viewBox="0 0 32 32" xmlns="http://www.w3.org/2000/svg">
<title>icon 40 clouds</title>
<desc>Created with Sketch.</desc>
<g fill="none" fill-rule="evenodd">
<g fill="#fff">
<path d="m28.194 18.995c2.115-0.10615 3.8056-1.8541 3.8056-3.9949 0-1.9007-1.3342-3.4971-3.1211-3.9012 0.07928-0.35356 0.12111-0.72128 0.12111-1.0988 0-2.7614-2.2386-5-5-5-1.8683 0-3.4973 1.0247-4.3556 2.5428-0.63749-0.34619-1.368-0.54283-2.1444-0.54283-1.7284 0-3.2293 0.97446-3.9831 2.404 1.2931 0.42823 2.4399 1.1774 3.3461 2.1532 0.8059-0.35812 1.6982-0.55713 2.6369-0.55713 3.3465 0 6.1024 2.529 6.4606 5.7801 0.92668 0.52672 1.6994 1.2931 2.2338 2.2148zm-0.19435 3.0051c0 2.7558-2.2383 5-4.9994 5h-17.001c-2.7669 0-4.9994-2.2386-4.9994-5 0-2.0509 1.2397-3.8184 3.0119-4.5885-0.0078945-0.13617-0.011897-0.27339-0.011897-0.41154 0-3.866 3.134-7 7-7 2.2979 0 4.3373 1.1073 5.6135 2.8174 0.83903-0.5183 1.8278-0.8174 2.8865-0.8174 3.009 0 5.4537 2.4164 5.4993 5.4145 1.7683 0.77076 3.0007 2.5338 3.0007 4.5855z"/>
</g>
</g>
</svg>
