<?xml version="1.0" encoding="UTF-8"?>
<svg version="1.1" viewBox="0 0 32 32" xmlns="http://www.w3.org/2000/svg">
<title>icon 43 wind</title>
<desc>Created with Sketch.</desc>
<g fill="none" fill-rule="evenodd">
<g fill="#fff">
<path d="m30 14c0-2.2091-1.7954-4-4-4-2.2091 0-4 1.7894-4 4h2c0-1.1046 0.88773-2 2-2 1.1046 0 2 0.88773 2 2 0 1.1046-0.88976 2-2.0036 2h-22.996v2h23.002c2.2083 0 3.9985-1.7954 3.9985-4zm-9-4c0-2.2091-1.7954-4-4-4-2.2091 0-4 1.7894-4 3.9971v0.0028992h2c0-1.1046 0.88773-2 2-2 1.1046 0 2 0.88773 2 2 0 1.1046-0.89706 2-2.0059 2h-11.994v2h12.004c2.207 0 3.9962-1.7954 3.9962-4zm5 13c0 1.6569-1.3465 3-3 3-1.6569 0-3-1.3421-3-2.9914v-0.008606h2c0 0.55228 0.44386 1 1 1 0.55228 0 1-0.44386 1-1 0-0.55228-0.44892-1-1.0075-1h-13.993v-2h14c1.6569 0 3.0001 1.3465 3.0001 3z"/>
</g>
</g>
</svg>
