<?xml version="1.0" encoding="UTF-8"?>
<svg version="1.1" viewBox="0 0 32 32" xmlns="http://www.w3.org/2000/svg">
<title>icon 17 cloud snowflakes</title>
<desc>Created with Sketch.</desc>
<g fill="none" fill-rule="evenodd">
<g fill="#fff">
<path d="m26.999 14.415c1.7683 0.77076 3.0007 2.5338 3.0007 4.5855 0 2.7558-2.2383 5-4.9994 5h-17.001c-2.7669 0-4.9994-2.2386-4.9994-5 0-2.0509 1.2397-3.8184 3.0119-4.5885-0.0078945-0.13617-0.011897-0.27339-0.011897-0.41154 0-3.866 3.134-7 7-7 2.2979 0 4.3373 1.1073 5.6135 2.8174 0.83903-0.5183 1.8278-0.8174 2.8865-0.8174 3.009 0 5.4537 2.4164 5.4993 5.4145zm-15.999 12.219v-1.1363c0-0.27487-0.23193-0.4977-0.5-0.4977-0.27614 0-0.5 0.21484-0.5 0.4977v1.1363l-0.98404-0.56814c-0.23805-0.13744-0.54699-0.047989-0.68102 0.18416-0.13807 0.23915-0.06394 0.54043 0.18102 0.68186l0.98404 0.56814-0.98404 0.56814c-0.23805 0.13744-0.31505 0.44971-0.18102 0.68186 0.13807 0.23915 0.43606 0.32559 0.68102 0.18416l0.98404-0.56814v1.1363c0 0.27487 0.23193 0.4977 0.5 0.4977 0.27614 0 0.5-0.21484 0.5-0.4977v-1.1363l0.98404 0.56814c0.23805 0.13744 0.54699 0.047989 0.68102-0.18416 0.13807-0.23915 0.06394-0.54043-0.18102-0.68186l-0.98404-0.56814 0.98404-0.56814c0.23805-0.13744 0.31505-0.44971 0.18102-0.68186-0.13807-0.23915-0.43606-0.32559-0.68102-0.18416l-0.98404 0.56814zm12 0v-1.1363c0-0.27487-0.23193-0.4977-0.5-0.4977-0.27614 0-0.5 0.21484-0.5 0.4977v1.1363l-0.98404-0.56814c-0.23805-0.13744-0.54699-0.047989-0.68102 0.18416-0.13807 0.23915-0.06394 0.54043 0.18102 0.68186l0.98404 0.56814-0.98404 0.56814c-0.23805 0.13744-0.31505 0.44971-0.18102 0.68186 0.13807 0.23915 0.43606 0.32559 0.68102 0.18416l0.98404-0.56814v1.1363c0 0.27487 0.23193 0.4977 0.5 0.4977 0.27614 0 0.5-0.21484 0.5-0.4977v-1.1363l0.98404 0.56814c0.23805 0.13744 0.54699 0.047989 0.68102-0.18416 0.13807-0.23915 0.06394-0.54043-0.18102-0.68186l-0.98404-0.56814 0.98404-0.56814c0.23805-0.13744 0.31505-0.44971 0.18102-0.68186-0.13807-0.23915-0.43606-0.32559-0.68102-0.18416l-0.98404 0.56814zm-6 1v-1.1363c0-0.27487-0.23193-0.4977-0.5-0.4977-0.27614 0-0.5 0.21484-0.5 0.4977v1.1363l-0.98404-0.56814c-0.23805-0.13744-0.54699-0.047989-0.68102 0.18416-0.13807 0.23915-0.06394 0.54043 0.18102 0.68186l0.98404 0.56814-0.98404 0.56814c-0.23805 0.13744-0.31505 0.44971-0.18102 0.68186 0.13807 0.23915 0.43606 0.32559 0.68102 0.18416l0.98404-0.56814v1.1363c0 0.27487 0.23193 0.4977 0.5 0.4977 0.27614 0 0.5-0.21484 0.5-0.4977v-1.1363l0.98404 0.56814c0.23805 0.13744 0.54699 0.047989 0.68102-0.18416 0.13807-0.23915 0.06394-0.54043-0.18102-0.68186l-0.98404-0.56814 0.98404-0.56814c0.23805-0.13744 0.31505-0.44971 0.18102-0.68186-0.13807-0.23915-0.43606-0.32559-0.68102-0.18416l-0.98404 0.56814z"/>
</g>
</g>
</svg>
